<svg width="24" height="24" viewBox="0 0 24 24" fill="none" xmlns="http://www.w3.org/2000/svg">
<path d="M4 3V21C4 21.2652 3.89464 21.5196 3.70711 21.7071C3.51957 21.8946 3.26522 22 3 22C2.73478 22 2.48043 21.8946 2.29289 21.7071C2.10536 21.5196 2 21.2652 2 21V3C2 2.73478 2.10536 2.48043 2.29289 2.29289C2.48043 2.10536 2.73478 2 3 2C3.26522 2 3.51957 2.10536 3.70711 2.29289C3.89464 2.48043 4 2.73478 4 3ZM21 13H7C6.73478 13 6.48043 13.1054 6.29289 13.2929C6.10536 13.4804 6 13.7348 6 14V19C6 19.2652 6.10536 19.5196 6.29289 19.7071C6.48043 19.8946 6.73478 20 7 20H21C21.2652 20 21.5196 19.8946 21.7071 19.7071C21.8946 19.5196 22 19.2652 22 19V14C22 13.7348 21.8946 13.4804 21.7071 13.2929C21.5196 13.1054 21.2652 13 21 13ZM7 11H17C17.2652 11 17.5196 10.8946 17.7071 10.7071C17.8946 10.5196 18 10.2652 18 10V5C18 4.73478 17.8946 4.48043 17.7071 4.29289C17.5196 4.10536 17.2652 4 17 4H7C6.73478 4 6.48043 4.10536 6.29289 4.29289C6.10536 4.48043 6 4.73478 6 5V10C6 10.2652 6.10536 10.5196 6.29289 10.7071C6.48043 10.8946 6.73478 11 7 11Z" fill="url(#paint0_linear_26_164)"/>
<defs>
<linearGradient id="paint0_linear_26_164" x1="4.19867" y1="4.20549" x2="19.8" y2="19.8082" gradientUnits="userSpaceOnUse">
<stop stop-color="#FFB868"/>
<stop offset="1" stop-color="#ED9027"/>
</linearGradient>
</defs>
</svg>
